<?xml version="1.0" encoding="utf-8"?>
<!-- Generator: Adobe Illustrator 18.1.0, SVG Export Plug-In . SVG Version: 6.00 Build 0)  -->
<svg version="1.1" id="Layer_1" xmlns="http://www.w3.org/2000/svg" xmlns:xlink="http://www.w3.org/1999/xlink" x="0px" y="0px"
	 viewBox="0 0 25 25" enable-background="new 0 0 25 25" xml:space="preserve">
<path fill="#FFFFFF" d="M12.9,4.9c-4.2,0-6.3,3-6.3,5.5c0,1.5,0.6,2.9,1.8,3.4c0.2,0.1,0.4,0,0.4-0.2c0-0.2,0.1-0.5,0.2-0.7
	c0.1-0.2,0-0.3-0.1-0.5c-0.4-0.4-0.6-1-0.6-1.7c0-2.2,1.7-4.2,4.3-4.2c2.4,0,3.7,1.4,3.7,3.4c0,2.5-1.1,4.7-2.8,4.7
	c-0.9,0-1.6-0.8-1.4-1.7c0.3-1.1,0.8-2.3,0.8-3.1c0-0.7-0.4-1.3-1.2-1.3c-0.9,0-1.7,1-1.7,2.3c0,0.8,0.3,1.4,0.3,1.4s-1,4.1-1.1,4.8
	c-0.3,1.4-0.1,3.2,0,3.3c0,0.1,0.1,0.1,0.2,0.1c0.1-0.1,1.2-1.5,1.6-2.9c0.1-0.4,0.6-2.4,0.6-2.4c0.3,0.6,1.2,1.1,2.1,1.1
	c2.8,0,4.7-2.6,4.7-6C18.4,7.3,16.2,4.9,12.9,4.9z"/>
</svg>
