<?xml version="1.0" encoding="utf-8"?>
<!-- Generator: Adobe Illustrator 18.1.0, SVG Export Plug-In . SVG Version: 6.00 Build 0)  -->
<svg version="1.1" id="Layer_1" xmlns="http://www.w3.org/2000/svg" xmlns:xlink="http://www.w3.org/1999/xlink" x="0px" y="0px"
	 viewBox="0 0 25 25" enable-background="new 0 0 25 25" xml:space="preserve">
<path fill="#FFFFFF" d="M20,11c-0.1-0.5-0.3-1-0.4-1.4c-0.2-0.5-0.4-0.9-0.7-1.3c-0.3-0.4-0.6-0.8-0.9-1.1c-0.3-0.3-0.7-0.7-1.1-0.9
	c-0.4-0.3-0.8-0.5-1.3-0.7C15,5.2,14.5,5.1,14,5c-0.5-0.1-1-0.2-1.5-0.2c-0.5,0-1,0.1-1.5,0.2c-0.5,0.1-1,0.3-1.4,0.4
	C9.1,5.6,8.6,5.9,8.2,6.1C7.8,6.4,7.4,6.7,7.1,7.1C6.7,7.4,6.4,7.8,6.1,8.2C5.9,8.6,5.6,9.1,5.4,9.5C5.2,10,5.1,10.5,5,11
	c-0.1,0.5-0.2,1-0.2,1.5c0,0.5,0.1,1,0.2,1.5c0.1,0.5,0.3,1,0.4,1.4c0.2,0.5,0.4,0.9,0.7,1.3c0.3,0.4,0.6,0.8,0.9,1.1
	c0.3,0.3,0.7,0.7,1.1,0.9c0.4,0.3,0.9,0.5,1.3,0.7c0.5,0.2,1,0.3,1.4,0.4c0.5,0.1,1,0.2,1.5,0.2c0.5,0,1-0.1,1.5-0.2
	c0.5-0.1,1-0.3,1.4-0.4c0.5-0.2,0.9-0.4,1.3-0.7c0.4-0.3,0.8-0.6,1.1-0.9c0.3-0.3,0.7-0.7,0.9-1.1c0.3-0.4,0.5-0.9,0.7-1.3
	c0.2-0.5,0.3-1,0.4-1.4c0.1-0.5,0.2-1,0.2-1.5C20.2,12,20.1,11.5,20,11z M19.1,12.4c-0.1,0-2.3-0.5-4.6-0.2c0-0.1-0.1-0.2-0.1-0.3
	c-0.1-0.3-0.3-0.6-0.4-1c2.6-1.1,3.6-2.6,3.7-2.6C18.5,9.4,19,10.9,19.1,12.4z M16.8,7.6c0,0-1,1.4-3.4,2.4
	c-1.1-2.1-2.4-3.7-2.5-3.8c0.5-0.1,1-0.2,1.5-0.2C14.2,5.9,15.7,6.6,16.8,7.6z M10.9,6.1C10.9,6.1,10.9,6.1,10.9,6.1
	C10.9,6.1,10.9,6.1,10.9,6.1C10.9,6.1,10.9,6.1,10.9,6.1z M9.7,6.6c0.1,0.1,1.3,1.8,2.4,3.8c-3.2,0.8-5.9,0.8-6.1,0.8
	C6.5,9.1,7.9,7.4,9.7,6.6z M5.9,12.5c0-0.1,0-0.1,0-0.2c0.1,0,3.4,0.1,6.7-0.9c0.2,0.4,0.4,0.7,0.5,1.1c-0.1,0-0.2,0.1-0.3,0.1
	c-3.5,1.1-5.3,4.3-5.3,4.3s0,0,0,0C6.6,15.7,5.9,14.2,5.9,12.5z M12.5,19.1c-1.6,0-3-0.6-4.2-1.5c0.1,0.1,0.1,0.1,0.1,0.1
	s1.3-2.7,5.1-4.1c0,0,0,0,0,0c0.9,2.4,1.3,4.4,1.4,5C14.3,18.9,13.4,19.1,12.5,19.1z M16.2,17.9c-0.1-0.4-0.4-2.3-1.3-4.7
	c2.1-0.3,4,0.2,4.1,0.3C18.7,15.4,17.6,16.9,16.2,17.9z"/>
</svg>
