<?xml version="1.0" encoding="utf-8"?>
<!-- Generator: Adobe Illustrator 18.1.0, SVG Export Plug-In . SVG Version: 6.00 Build 0)  -->
<svg version="1.1" id="Layer_1" xmlns="http://www.w3.org/2000/svg" xmlns:xlink="http://www.w3.org/1999/xlink" x="0px" y="0px"
	 viewBox="0 0 25 25" enable-background="new 0 0 25 25" xml:space="preserve">
<path fill="#FFFFFF" d="M16.6,5.7H8.4c-1.4,0-2.6,1.2-2.6,2.6v2.8v5.5c0,1.4,1.2,2.6,2.6,2.6h8.3c1.4,0,2.6-1.2,2.6-2.6v-5.5V8.4
	C19.3,6.9,18.1,5.7,16.6,5.7z M17.4,7.3l0.3,0v0.3v2l-2.3,0l0-2.3L17.4,7.3z M10.6,11.1c0.4-0.6,1.1-1,1.9-1s1.5,0.4,1.9,1
	c0.3,0.4,0.5,0.9,0.5,1.4c0,1.3-1.1,2.4-2.4,2.4c-1.3,0-2.4-1.1-2.4-2.4C10.1,12,10.3,11.5,10.6,11.1z M17.9,16.6
	c0,0.7-0.6,1.3-1.3,1.3H8.4c-0.7,0-1.3-0.6-1.3-1.3v-5.5h2c-0.2,0.4-0.3,0.9-0.3,1.4c0,2,1.7,3.7,3.7,3.7c2,0,3.7-1.7,3.7-3.7
	c0-0.5-0.1-1-0.3-1.4h2V16.6z"/>
</svg>
