<?xml version="1.0" encoding="utf-8"?>
<!-- Generator: Adobe Illustrator 18.1.0, SVG Export Plug-In . SVG Version: 6.00 Build 0)  -->
<svg version="1.1" id="Layer_1" xmlns="http://www.w3.org/2000/svg" xmlns:xlink="http://www.w3.org/1999/xlink" x="0px" y="0px"
	 viewBox="0 0 25 25" enable-background="new 0 0 25 25" xml:space="preserve">
<g transform="translate(96 240)">
	<path fill="#FFFFFF" d="M-76.8-226v5h-2.9v-4.6c0-1.2-0.4-2-1.5-2c-0.8,0-1.3,0.5-1.5,1.1c-0.1,0.2-0.1,0.4-0.1,0.7v4.8h-2.9
		c0,0,0-7.8,0-8.7h2.9v1.2c0,0,0,0,0,0h0v0c0.4-0.6,1.1-1.4,2.6-1.4C-78.2-229.9-76.8-228.7-76.8-226L-76.8-226z M-88.6-233.9
		c-1,0-1.6,0.6-1.6,1.5c0,0.8,0.6,1.5,1.6,1.5h0c1,0,1.6-0.7,1.6-1.5C-87-233.3-87.6-233.9-88.6-233.9L-88.6-233.9z M-90-221.1h2.9
		v-8.7H-90V-221.1z"/>
</g>
</svg>
