<?xml version="1.0" encoding="utf-8"?>
<!-- Generator: Adobe Illustrator 18.1.0, SVG Export Plug-In . SVG Version: 6.00 Build 0)  -->
<svg version="1.1" id="Layer_1" xmlns="http://www.w3.org/2000/svg" xmlns:xlink="http://www.w3.org/1999/xlink" x="0px" y="0px"
	 viewBox="0 0 25 25" enable-background="new 0 0 25 25" xml:space="preserve">
<g>
	<path fill="#FFFFFF" d="M10.7,12.1c0,0,1.8-0.1,1.8-2.2c0-2.1-1.2-3.2-3-3.2l-6.3,0v11.7h6.4c0,0,3.2,0.1,3.2-3.5
		C12.8,14.8,13,12.1,10.7,12.1z M5.5,8.4h3.2c0,0,1.1,0,1.1,1.4c0,1.5-1.1,1.5-1.1,1.5H5.5V8.4z M9,16.6H5.5v-3.5H9
		c0,0,1.8,0,1.8,1.8S9.2,16.6,9,16.6z"/>
	<path fill="#FFFFFF" d="M17.8,9.6c-4.4,0-4.4,4.4-4.4,4.4s-0.3,4.4,4.4,4.4c0,0,4.1,0,4.1-3.5h-2.3c0,0,0,1.8-1.8,1.8
		c0,0-1.8,0-1.8-2.3c0,0,4.7,0,5.8,0C21.8,13.1,21.8,9.6,17.8,9.6z M16,13.1c0,0,0-1.8,1.8-1.8c1.8,0,1.8,1.8,1.8,1.8H16z"/>
	<rect x="15.4" y="7.8" fill="#FFFFFF" width="4.7" height="1.2"/>
</g>
</svg>
